<?xml version="1.0" standalone="no"?>
<!DOCTYPE svg PUBLIC "-//W3C//DTD SVG 20010904//EN"
 "http://www.w3.org/TR/2001/REC-SVG-20010904/DTD/svg10.dtd">
<svg version="1.0" xmlns="http://www.w3.org/2000/svg"
 width="479.000000pt" height="359.000000pt" viewBox="0 0 479.000000 359.000000"
 preserveAspectRatio="xMidYMid meet">
<metadata>
Created by potrace 1.16, written by Peter Selinger 2001-2019
</metadata>
<g transform="translate(0.000000,359.000000) scale(0.100000,-0.100000)"
fill="#000000" stroke="none">
<path d="M955 2855 c-7 -19 -26 -187 -23 -191 6 -5 378 -38 382 -33 6 6 -6
176 -13 187 -9 14 -342 50 -346 37z"/>
<path d="M1843 2629 c-48 -18 -53 -23 -54 -52 0 -18 -2 -42 -3 -54 -3 -28 -3
-28 65 -5 50 17 64 18 194 6 77 -7 146 -13 153 -14 6 0 12 -11 12 -25 0 -20 5
-25 25 -25 18 0 25 5 25 20 0 17 7 20 50 20 l50 0 0 53 0 53 -177 17 c-299 29
-283 29 -340 6z"/>
<path d="M503 2500 c-31 -20 -32 -23 -26 -73 7 -60 10 -67 24 -47 8 12 9 10 4
-7 -3 -12 -2 -24 3 -27 5 -3 7 -18 5 -33 -4 -22 -2 -25 6 -13 6 8 11 11 12 5
1 -5 4 6 8 25 4 22 29 -168 69 -522 l63 -558 -21 -22 c-18 -19 -22 -20 -30 -8
-8 12 -10 9 -10 -12 0 -31 21 -55 57 -64 31 -8 439 9 449 18 3 4 16 77 27 163
11 85 23 155 26 155 3 0 16 -63 27 -141 12 -77 27 -146 33 -152 9 -9 72 -11
221 -10 173 2 209 0 214 -12 4 -11 18 -14 54 -11 27 3 65 1 85 -4 24 -5 38 -4
41 4 3 8 5 7 5 -1 1 -9 11 -11 32 -6 21 4 34 1 40 -8 13 -20 11 -29 -6 -29 -8
0 -15 6 -15 13 -1 7 -6 5 -14 -6 -14 -18 -14 -18 -19 0 -4 16 -5 16 -6 1 -1
-21 -19 -23 -35 -4 -7 8 -40 16 -89 19 l-77 5 15 -21 c18 -26 19 -41 3 -31
-10 5 -10 3 0 -7 20 -22 338 -26 400 -5 25 9 73 16 108 16 119 0 141 13 154
90 l5 35 225 11 c310 16 352 23 401 70 l26 25 36 -23 c20 -13 34 -29 32 -35
-3 -10 17 -13 83 -12 72 0 84 2 67 12 -45 27 -92 86 -103 128 -6 24 -14 90
-18 147 l-7 102 -32 0 -33 0 -4 -127 c-5 -129 -21 -201 -38 -174 -4 8 -6 21
-2 29 3 10 1 13 -6 8 -8 -4 -16 3 -22 19 -5 14 -21 38 -35 53 -14 15 -25 35
-25 44 0 10 -9 23 -20 30 -12 8 -20 24 -20 40 0 18 -5 28 -15 28 -11 0 -15 11
-15 40 0 22 -4 40 -10 40 -5 0 -11 -39 -13 -87 l-3 -88 -2 97 c-1 53 -5 105
-8 115 -5 15 -4 15 5 3 15 -21 13 0 -3 31 -18 35 -39 126 -32 138 4 5 -4 13
-16 17 l-23 8 25 6 c35 8 50 44 50 122 0 86 -12 116 -51 130 -23 8 -29 15 -26
30 5 17 2 19 -19 14 -22 -6 -24 -5 -12 8 7 7 15 12 18 11 3 -2 6 22 5 53 0 52
2 57 23 58 12 1 25 3 27 6 7 7 -318 30 -335 24 -8 -3 -34 -10 -57 -16 -40 -10
-43 -13 -43 -46 l0 -36 -47 4 c-44 3 -48 6 -54 33 l-7 30 -1 -29 -1 -28 -142
8 c-179 10 -177 10 -212 1 l-29 -8 7 70 c6 55 4 71 -6 71 -7 0 -73 5 -148 11
-125 9 -139 9 -185 -9 l-50 -20 -15 -108 c-8 -61 -16 -95 -18 -78 -3 29 -7 32
-45 38 -23 3 -112 8 -197 12 -199 8 -225 0 -235 -73 -4 -26 -10 -66 -15 -88
-7 -36 -8 -37 -9 -10 -8 166 -31 389 -41 395 -6 4 -62 10 -123 14 -62 4 -134
9 -162 12 -40 4 -57 1 -82 -16z m1786 -346 l31 -6 0 -109 0 -109 -50 0 -50 0
-2 38 -1 37 -4 -37 c-3 -25 -9 -38 -19 -38 -11 0 -14 22 -14 115 l0 115 39 0
c21 0 53 -3 70 -6z m-309 -660 l200 -1 0 108 0 109 70 0 70 0 0 -112 0 -113
55 -35 c30 -19 55 -40 55 -45 0 -12 -73 -51 -112 -61 -16 -3 -28 -10 -28 -15
0 -5 -9 -9 -21 -9 -11 0 -33 -6 -47 -14 -15 -8 -39 -17 -54 -20 -25 -6 -27 -9
-30 -77 -2 -39 1 -77 5 -85 6 -10 2 -14 -13 -14 -18 0 -20 4 -14 39 4 23 1 55
-7 77 -7 22 -13 44 -14 49 0 6 -20 10 -44 10 -40 0 -46 -3 -60 -33 -16 -32
-17 -33 -78 -30 -33 2 -60 1 -58 -2 2 -3 -1 -12 -6 -20 -7 -11 -9 2 -8 41 2
30 -1 61 -5 67 -4 7 -2 12 3 12 6 0 11 -4 11 -10 0 -11 92 -13 192 -4 l67 7
-19 36 c-43 85 -91 103 -268 100 -132 -2 -152 1 -152 27 0 9 11 14 34 14 38 0
35 -13 58 215 l13 130 3 -170 2 -170 200 -1z"/>
<path d="M3780 2509 c-97 -20 -90 -15 -90 -65 0 -44 1 -45 28 -40 15 3 45 8
67 12 74 11 75 12 75 60 0 49 0 49 -80 33z"/>
<path d="M3523 2268 c-52 -8 -63 -13 -63 -29 0 -14 7 -19 30 -19 40 0 50 -26
57 -148 l6 -93 -42 7 -41 7 0 -78 c0 -73 2 -80 35 -126 48 -65 69 -161 62
-289 -6 -107 -17 -143 -55 -182 -18 -20 -21 -28 -11 -29 8 -1 3 -4 -11 -8 -14
-5 12 -7 60 -5 l85 3 0 66 c0 36 -2 261 -3 500 l-2 435 -22 -1 c-13 -1 -51 -6
-85 -11z"/>
<path d="M3024 2228 l-51 -9 14 -52 c21 -82 17 -212 -8 -264 l-21 -43 21 -29
c12 -16 64 -66 115 -110 90 -78 96 -81 144 -81 l50 0 4 -101 c3 -83 7 -104 22
-114 25 -19 43 -9 57 32 10 32 6 124 -8 160 -3 7 -54 56 -113 107 -123 108
-145 144 -159 256 -9 70 -1 202 14 243 8 19 0 20 -81 5z"/>
<path d="M4220 2224 c-14 -3 -44 -7 -67 -10 -40 -5 -43 -8 -43 -35 0 -27 3
-29 39 -29 21 0 53 -3 70 -6 29 -6 31 -9 31 -50 l0 -44 -52 0 -51 0 6 -296 c5
-280 5 -297 -14 -327 -21 -36 -24 -47 -10 -47 5 0 13 10 18 23 6 18 9 13 14
-28 l6 -50 1 48 c1 30 6 47 15 47 8 0 7 4 -3 10 -13 8 -12 10 3 10 9 0 17 -7
17 -15 0 -8 8 -15 19 -15 10 0 39 -3 65 -6 38 -6 46 -4 46 9 0 8 6 18 13 20 6
3 0 6 -15 6 -20 1 -28 -4 -28 -16 0 -15 -2 -16 -10 -3 -5 8 -10 25 -10 38 0
17 6 22 28 23 15 1 20 3 11 6 -9 2 -19 18 -23 35 -3 17 -6 183 -6 369 l0 339
-22 -1 c-13 -1 -34 -3 -48 -5z"/>
<path d="M3836 2162 c-18 -4 -18 -18 -11 -430 4 -235 8 -428 9 -429 0 -1 34
-5 74 -8 l72 -8 0 294 c0 162 -3 338 -7 392 l-6 97 -47 0 -47 0 -9 48 c-7 39
-12 47 -28 44z"/>
</g>
</svg>
